{
	"asset":{
		"generator":"Khronos glTF Blender I/O v3.6.28",
		"version":"2.0"
	},
	"scene":0,
	"scenes":[
		{
			"name":"Scene",
			"nodes":[
				0
			]
		}
	],
	"nodes":[
		{
			"mesh":0,
			"name":"Hill_12x12x4_Color1"
		}
	],
	"materials":[
		{
			"name":"forest.001",
			"pbrMetallicRoughness":{
				"baseColorTexture":{
					"index":0
				},
				"metallicFactor":0,
				"roughnessFactor":0.6000000238418579
			}
		}
	],
	"meshes":[
		{
			"name":"Hill_12x12x4_Color1",
			"primitives":[
				{
					"attributes":{
						"POSITION":0,
						"NORMAL":1,
						"TEXCOORD_0":2
					},
					"indices":3,
					"material":0
				}
			]
		}
	],
	"textures":[
		{
			"sampler":0,
			"source":0
		}
	],
	"images":[
		{
			"mimeType":"image/png",
			"name":"forest_texture",
			"uri":"forest_texture.png"
		}
	],
	"accessors":[
		{
			"bufferView":0,
			"componentType":5126,
			"count":1870,
			"max":[
				6.25,
				4,
				6.250002384185791
			],
			"min":[
				-6.250001907348633,
				0,
				-6.250001430511475
			],
			"type":"VEC3"
		},
		{
			"bufferView":1,
			"componentType":5126,
			"count":1870,
			"type":"VEC3"
		},
		{
			"bufferView":2,
			"componentType":5126,
			"count":1870,
			"type":"VEC2"
		},
		{
			"bufferView":3,
			"componentType":5123,
			"count":6426,
			"type":"SCALAR"
		}
	],
	"bufferViews":[
		{
			"buffer":0,
			"byteLength":22440,
			"byteOffset":0,
			"target":34962
		},
		{
			"buffer":0,
			"byteLength":22440,
			"byteOffset":22440,
			"target":34962
		},
		{
			"buffer":0,
			"byteLength":14960,
			"byteOffset":44880,
			"target":34962
		},
		{
			"buffer":0,
			"byteLength":12852,
			"byteOffset":59840,
			"target":34963
		}
	],
	"samplers":[
		{
			"magFilter":9729,
			"minFilter":9987
		}
	],
	"buffers":[
		{
			"byteLength":72692,
			"uri":"Hill_12x12x4_Color1.bin"
		}
	]
}
