{
	"asset":{
		"generator":"Khronos glTF Blender I/O v3.6.28",
		"version":"2.0"
	},
	"scene":0,
	"scenes":[
		{
			"name":"Scene",
			"nodes":[
				0
			]
		}
	],
	"nodes":[
		{
			"mesh":0,
			"name":"Hill_8x8x4_Color1"
		}
	],
	"materials":[
		{
			"name":"forest.019",
			"pbrMetallicRoughness":{
				"baseColorTexture":{
					"index":0
				},
				"metallicFactor":0,
				"roughnessFactor":0.6000000238418579
			}
		}
	],
	"meshes":[
		{
			"name":"Hill_8x8x4_Color1",
			"primitives":[
				{
					"attributes":{
						"POSITION":0,
						"NORMAL":1,
						"TEXCOORD_0":2
					},
					"indices":3,
					"material":0
				}
			]
		}
	],
	"textures":[
		{
			"sampler":0,
			"source":0
		}
	],
	"images":[
		{
			"mimeType":"image/png",
			"name":"forest_texture",
			"uri":"forest_texture.png"
		}
	],
	"accessors":[
		{
			"bufferView":0,
			"componentType":5126,
			"count":1214,
			"max":[
				4.25,
				4,
				4.250001430511475
			],
			"min":[
				-4.250001430511475,
				0,
				-4.250000953674316
			],
			"type":"VEC3"
		},
		{
			"bufferView":1,
			"componentType":5126,
			"count":1214,
			"type":"VEC3"
		},
		{
			"bufferView":2,
			"componentType":5126,
			"count":1214,
			"type":"VEC2"
		},
		{
			"bufferView":3,
			"componentType":5123,
			"count":4170,
			"type":"SCALAR"
		}
	],
	"bufferViews":[
		{
			"buffer":0,
			"byteLength":14568,
			"byteOffset":0,
			"target":34962
		},
		{
			"buffer":0,
			"byteLength":14568,
			"byteOffset":14568,
			"target":34962
		},
		{
			"buffer":0,
			"byteLength":9712,
			"byteOffset":29136,
			"target":34962
		},
		{
			"buffer":0,
			"byteLength":8340,
			"byteOffset":38848,
			"target":34963
		}
	],
	"samplers":[
		{
			"magFilter":9729,
			"minFilter":9987
		}
	],
	"buffers":[
		{
			"byteLength":47188,
			"uri":"Hill_8x8x4_Color1.bin"
		}
	]
}
