{
	"asset":{
		"generator":"Khronos glTF Blender I/O v3.6.28",
		"version":"2.0"
	},
	"scene":0,
	"scenes":[
		{
			"name":"Scene",
			"nodes":[
				0
			]
		}
	],
	"nodes":[
		{
			"mesh":0,
			"name":"Hill_12x6x8_Color1"
		}
	],
	"materials":[
		{
			"name":"forest.005",
			"pbrMetallicRoughness":{
				"baseColorTexture":{
					"index":0
				},
				"metallicFactor":0,
				"roughnessFactor":0.6000000238418579
			}
		}
	],
	"meshes":[
		{
			"name":"Hill_12x6x8_Color1",
			"primitives":[
				{
					"attributes":{
						"POSITION":0,
						"NORMAL":1,
						"TEXCOORD_0":2
					},
					"indices":3,
					"material":0
				}
			]
		}
	],
	"textures":[
		{
			"sampler":0,
			"source":0
		}
	],
	"images":[
		{
			"mimeType":"image/png",
			"name":"forest_texture",
			"uri":"forest_texture.png"
		}
	],
	"accessors":[
		{
			"bufferView":0,
			"componentType":5126,
			"count":1654,
			"max":[
				6.25,
				8,
				3.250000238418579
			],
			"min":[
				-6.25,
				0,
				-3.2500016689300537
			],
			"type":"VEC3"
		},
		{
			"bufferView":1,
			"componentType":5126,
			"count":1654,
			"type":"VEC3"
		},
		{
			"bufferView":2,
			"componentType":5126,
			"count":1654,
			"type":"VEC2"
		},
		{
			"bufferView":3,
			"componentType":5123,
			"count":5385,
			"type":"SCALAR"
		}
	],
	"bufferViews":[
		{
			"buffer":0,
			"byteLength":19848,
			"byteOffset":0,
			"target":34962
		},
		{
			"buffer":0,
			"byteLength":19848,
			"byteOffset":19848,
			"target":34962
		},
		{
			"buffer":0,
			"byteLength":13232,
			"byteOffset":39696,
			"target":34962
		},
		{
			"buffer":0,
			"byteLength":10770,
			"byteOffset":52928,
			"target":34963
		}
	],
	"samplers":[
		{
			"magFilter":9729,
			"minFilter":9987
		}
	],
	"buffers":[
		{
			"byteLength":63700,
			"uri":"Hill_12x6x8_Color1.bin"
		}
	]
}
